<svg xmlns="http://www.w3.org/2000/svg">

  <symbol id="organizacao" viewBox="0 0 24 24">
    <rect x="3" y="3" width="7" height="7" fill="none" stroke="currentColor" stroke-width="2"/>
    <rect x="14" y="3" width="7" height="7" fill="none" stroke="currentColor" stroke-width="2"/>
    <rect x="3" y="14" width="7" height="7" fill="none" stroke="currentColor" stroke-width="2"/>
    <rect x="14" y="14" width="7" height="7" fill="none" stroke="currentColor" stroke-width="2"/>
  </symbol>

  <symbol id="cozinha" viewBox="0 0 24 24">
    <path d="M7 3v11M11 3v11M7 7h4M6 14h6v7H6z"
          fill="none"
          stroke="currentColor"
          stroke-width="2"
          stroke-linecap="round"/>
    <path d="M16 3v18"
          fill="none"
          stroke="currentColor"
          stroke-width="2"
          stroke-linecap="round"/>
  </symbol>

  <symbol id="iluminacao" viewBox="0 0 24 24">
    <path d="M12 2a7 7 0 00-4 13c.6.5 1 1.3 1 2h6c0-.7.4-1.5 1-2a7 7 0 00-4-13z"
          fill="none"
          stroke="currentColor"
          stroke-width="2"
          stroke-linejoin="round"/>
    <line x1="9" y1="21" x2="15" y2="21"
          stroke="currentColor"
          stroke-width="2"/>
  </symbol>

  <symbol id="casa-inteligente" viewBox="0 0 24 24">
    <path d="M3 10l9-7 9 7v10a2 2 0 0 1-2 2H5a2 2 0 0 1-2-2z"
          fill="none"
          stroke="currentColor"
          stroke-width="2"/>
    <circle cx="12" cy="15" r="2"
          fill="none"
          stroke="currentColor"
          stroke-width="2"/>
  </symbol>

  <symbol id="limpeza" viewBox="0 0 24 24">
    <path d="M3 21h18"
          stroke="currentColor"
          stroke-width="2"/>
    <path d="M7 21V7l5-4 5 4v14"
          fill="none"
          stroke="currentColor"
          stroke-width="2"/>
  </symbol>

  <symbol id="conforto" viewBox="0 0 24 24">
    <path d="M4 12c3-6 13-6 16 0"
          fill="none"
          stroke="currentColor"
          stroke-width="2"/>
    <path d="M6 16c2-4 10-4 12 0"
          fill="none"
          stroke="currentColor"
          stroke-width="2"/>
    <path d="M8 20c1-2 7-2 8 0"
          fill="none"
          stroke="currentColor"
          stroke-width="2"/>
  </symbol>

</svg>
