<svg xmlns="http://www.w3.org/2000/svg" style="display:none">

  <!-- ORGANIZAÇÃO -->
  <symbol id="organizacao" viewBox="0 0 24 24">
    <rect x="3" y="3" width="7" height="7" fill="none" stroke="currentColor" stroke-width="2"/>
    <rect x="14" y="3" width="7" height="7" fill="none" stroke="currentColor" stroke-width="2"/>
    <rect x="3" y="14" width="7" height="7" fill="none" stroke="currentColor" stroke-width="2"/>
    <rect x="14" y="14" width="7" height="7" fill="none" stroke="currentColor" stroke-width="2"/>
  </symbol>

  <!-- COZINHA -->
  <symbol id="cozinha" viewBox="0 0 24 24">
    <path d="M7 3v11M11 3v11M7 7h4M6 14h6v7H6z"
          fill="none"
          stroke="currentColor"
          stroke-width="2"
          stroke-linecap="round"/>
    <path d="M16 3v18"
          fill="none"
          stroke="currentColor"
          stroke-width="2"
          stroke-linecap="round"/>
  </symbol>

  <!-- ILUMINAÇÃO -->
  <symbol id="iluminacao" viewBox="0 0 24 24">
    <path d="M12 2a7 7 0 00-4 13c.6.5 1 1.3 1 2h6c0-.7.4-1.5 1-2a7 7 0 00-4-13z"
          fill="none"
          stroke="currentColor"
          stroke-width="2"/>
    <line x1="9" y1="21" x2="15" y2="21"
          stroke="currentColor"
          stroke-width="2"/>
  </symbol>

  <!-- CASA INTELIGENTE -->
  <symbol id="casa-inteligente" viewBox="0 0 24 24">
    <path d="M3 10l9-7 9 7v10a2 2 0 0 1-2 2H5a2 2 0 0 1-2-2z"
          fill="none"
          stroke="currentColor"
          stroke-width="2"/>
    <circle cx="12" cy="15" r="2"
          fill="none"
          stroke="currentColor"
          stroke-width="2"/>
  </symbol>

  <!-- LIMPEZA (ASPIRADOR SIMBÓLICO) -->
  <symbol id="limpeza" viewBox="0 0 256 256">
  <g fill="none"
     stroke="currentColor"
     stroke-width="2"
     stroke-linecap="round"
     stroke-linejoin="round">

    <path d="
M 24 10.5
L 23 10.5
L 22.5 10
L 22 9.5
L 21.5 9
L 22 8.5
L 22.5 8
L 22 7.5
L 21 7.5
L 20.5 8
L 20.5 9
L 20.5 10
L 20 10.5
L 19.5 10
L 19 9.5
L 18 9.5
L 17.5 9
L 17 8.5
L 16.5 9
L 16 9.5
L 15.5 10
L 15 10.5
L 14 11
L 14 12
L 14 13
L 14.5 14
L 15 15
L 16 16
L 17 17
L 18 18
L 19 19
L 20 20
L 21 21
L 22 22
L 23 23
L 24 24
L 25 25
L 26 26
L 27 27
L 28 28
L 29 29
L 30 30
L 31 31
L 32 32
L 33 33
L 34 34
L 35 35
L 36 36
L 37 37
L 38 38
L 39 39
L 40 40
L 41 41
L 42 42
L 43 43
L 44 44
L 45 45
L 46 46
Z"/>
  </g>
</symbol>

  <!-- CONFORTO -->
  <symbol id="conforto" viewBox="0 0 24 24">
    <path d="M4 12c3-6 13-6 16 0"
          fill="none"
          stroke="currentColor"
          stroke-width="2"/>
    <path d="M6 16c2-4 10-4 12 0"
          fill="none"
          stroke="currentColor"
          stroke-width="2"/>
    <path d="M8 20c1-2 7-2 8 0"
          fill="none"
          stroke="currentColor"
          stroke-width="2"/>
  </symbol>

  <!-- HEART -->
  <symbol id="heart" viewBox="0 0 24 24">
    <path d="M12 21s-7-4.6-9.5-9A5.5 5.5 0 0112 5a5.5 5.5 0 019.5 7c-2.5 4.4-9.5 9-9.5 9z"
          fill="none"
          stroke="currentColor"
          stroke-width="2"/>
  </symbol>

  <!-- STAR -->
  <symbol id="star" viewBox="0 0 24 24">
    <path d="M12 3l2.8 6 6.2.5-4.7 4 1.4 6.1L12 16.8 6.3 19.6 7.7 13.5 3 9.5 9.2 9z"
          fill="none"
          stroke="currentColor"
          stroke-width="2"
          stroke-linejoin="round"/>
  </symbol>

  <!-- CART -->
  <symbol id="cart" viewBox="0 0 24 24">
    <circle cx="9" cy="20" r="1.5"/>
    <circle cx="18" cy="20" r="1.5"/>
    <path d="M3 4h2l2.2 10h11.5l2-7H7.2"
          fill="none"
          stroke="currentColor"
          stroke-width="2"
          stroke-linejoin="round"
          stroke-linecap="round"/>
  </symbol>

</svg>
